<?xml version="1.0" encoding="utf-8"?>
<!-- Generator: Adobe Illustrator 19.2.1, SVG Export Plug-In . SVG Version: 6.00 Build 0)  -->
<svg version="1.1" id="Layer_1" xmlns="http://www.w3.org/2000/svg" xmlns:xlink="http://www.w3.org/1999/xlink" x="0px" y="0px"
	 viewBox="0 0 4000 30" style="enable-background:new 0 0 4000 30;" xml:space="preserve" preserveAspectRatio="xMidYMid meet" width="4000" height="30">
<style type="text/css">
	.st0{fill:#3AAA35;}
</style>
<path class="st0" d="M0,12.7c50.2,1.4,111.3-0.8,150.5,7c30.3,0.3,53.3-3.1,94.1,0c2.6-3.4,14.2-0.6,15.1-5.2
	c5.5,6.9,16.4-7,22.6,1.3c13.7-8.3,66.9-12.7,71.5-1.3c5.3-1.1,5.1-6,11.3-6.5c-0.3,6.7,16.6-5.1,20.7,3.9c2.2-0.2,1.6-2.4,1.9-3.9
	c46.2-2.4,93.5-4.5,141.1-2.6c3.6,0.2,26.8-5.5,35.7,1.3C669.3,4.2,772.6,4.8,875,10.6c18.5-6.6,50-3.1,67.7,1.3
	c38.2-7.8,75.7-2.6,109.2-1.3c21.6-2,44.9-5.2,58.3-1.3c4.5-2.7,22-4.2,28.2,0c2-0.3,1.3-2.6,3.8-2.6c41.1,3.4,71.7-0.1,101.5,6.5
	c10.9-3.7,33.4-3.5,41.4,0c7-3.5,37.1-5.9,50.8,1.3c4.9-1.4,9.2-3.1,16.9-2.6c14.3,4.1,50.2-1.3,65.8,5.2
	c15.2-8.7,32.7,4.5,47.1-3.9c40.6,0.3,70.1,2.3,109.1,5.1c35,2.6,69.6-0.2,105.4,1.3c19.3,0.8,36.7,5.1,54.6-1.3
	c17.7,3.3,38.6-1.7,60.2-1.3c29.4,0.5,63.5-2.7,86.6,1.3c15.7-2.8,25-2,41.4-3.9c1.3,1,2.9,1.8,4.6,2.5l9.8-1.7l25.2-1.8
	c0,0,6.1-0.9,9.1,0c3,0.9,16.1,3.5,16.1,3.5l17.5-4l0.5-0.1l-0.4,0.1c0.1,0,0.3,0,0.4,0c4.7,0.1,9.5,0.1,14.4,0.2
	c44,0.5,91.7,0.1,124.3,6.5c30.3,0.3,53.3-3.1,94.1,0c2.6-3.4,14.2-0.6,15.1-5.2c5.5,6.9,16.4-7,22.6,1.3
	c13.7-8.3,66.9-12.7,71.5-1.3c5.3-1.1,5.1-6,11.3-6.5c-0.3,6.7,16.6-5.1,20.7,3.9c2.2-0.2,1.6-2.4,1.9-3.9
	c46.2-2.4,93.5-4.5,141.1-2.6c3.6,0.2,26.8-5.5,35.7,1.3c104.8-2.5,208.1-1.9,310.5,3.9c18.5-6.6,50-3.1,67.7,1.3
	c38.2-7.8,75.7-2.6,109.2-1.3c21.6-2,44.9-5.2,58.3-1.3c4.5-2.7,22-4.2,28.2,0c2-0.3,1.3-2.6,3.8-2.6c41.1,3.4,71.7-0.1,101.5,6.5
	c10.9-3.7,33.4-3.5,41.4,0c7-3.5,37.1-5.9,50.8,1.3c4.9-1.4,9.2-3.1,16.9-2.6c14.3,4.1,50.2-1.3,65.8,5.2
	c15.2-8.7,32.7,4.5,47.1-3.9c40.6,0.3,70.1,2.3,109.1,5.1c35,2.6,69.6-0.2,105.4,1.3c19.3,0.8,36.7,5.1,54.6-1.3
	c17.7,3.3,38.6-1.7,60.2-1.3c29.4,0.5,63.5-2.7,86.6,1.3c15.7-2.8,25-2,41.4-3.9c7,5.6,23.5,4.6,26.4,12.9
	c5.6,0.3,12.5-5.1,16.9-1.3c3.3-1.2,3.5-4.5,5.7-6.5c5.8,2.5,13.1,3.9,20.7,5.2c4.1,0.2,0.7-4.6,1.7-6.5c4.3,0.4,7.8,0.6,11.6,0.7V0
	H0V12.7z"/>
</svg>
