<svg xmlns="http://www.w3.org/2000/svg" viewBox="0 0 229.72 172.11"><defs><style>.cls-1{fill:#3c3c3c;}.cls-2{fill:none;}.cls-3{fill:#fff;}.cls-4{fill:#3aaa35;}.cls-5{fill:#41a348;}</style></defs><title>Middel 2</title><g id="Laag_2" data-name="Laag 2"><g id="Layer_1" data-name="Layer 1"><rect class="cls-1" x="0.15" width="229.42" height="61.65"/><path class="cls-2" d="M29.29,44a5.48,5.48,0,0,0,1.81-4.3,6.49,6.49,0,0,0-2-4.75,8,8,0,0,0-5.88-2H18.31V45.6h6.17A7.08,7.08,0,0,0,29.29,44Z"/><path class="cls-2" d="M103.09,41.15q3.61-4.47,3.62-12.25,0-5.87-3.19-9.23a10.12,10.12,0,0,0-7.66-3.38h-5V45.61h3.37A11,11,0,0,0,103.09,41.15Z"/><path class="cls-2" d="M27.44,24.34a4.7,4.7,0,0,0,1.9-3.87c0-2.58-1.86-4-5.61-4.18H18.31v9.55h4.8A6.79,6.79,0,0,0,27.44,24.34Z"/><path class="cls-3" d="M35.27,49.19a11.59,11.59,0,0,0,4.43-9.51,10.31,10.31,0,0,0-2.43-7,11.22,11.22,0,0,0-6.86-3.55,8.53,8.53,0,0,0,5.52-2.87,8.87,8.87,0,0,0,2-6A10,10,0,0,0,34.34,12c-2.41-1.93-6.06-2.9-10.92-2.9H9.7V52.78H23Q30.84,52.78,35.27,49.19Zm-17-32.9h5.42c3.75.21,5.61,1.6,5.61,4.18a4.7,4.7,0,0,1-1.9,3.87,6.79,6.79,0,0,1-4.33,1.5h-4.8Zm0,16.65h4.87a8,8,0,0,1,5.88,2,6.49,6.49,0,0,1,2,4.75A5.48,5.48,0,0,1,29.29,44a7.08,7.08,0,0,1-4.81,1.58H18.31Z"/><path class="cls-3" d="M59.78,53.15q7.92,0,12.1-4.14c2.78-2.77,4.17-6.87,4.17-12.33V9.12H67V37.44a9.42,9.42,0,0,1-1.9,6.33A6.67,6.67,0,0,1,59.72,46a6.48,6.48,0,0,1-5.27-2.21,9.63,9.63,0,0,1-1.84-6.33V9.12H43.5V36.68c0,5.46,1.39,9.56,4.18,12.33S54.5,53.15,59.78,53.15Z"/><path class="cls-3" d="M110,46.35q6.11-6.42,6.11-17,0-8.94-5.61-14.6T95.61,9.12H82.08V52.78H93.67Q103.92,52.78,110,46.35ZM90.87,16.29h5a10.12,10.12,0,0,1,7.66,3.38q3.2,3.36,3.19,9.23,0,7.79-3.62,12.25a11,11,0,0,1-8.85,4.46H90.87Z"/><path class="cls-3" d="M140.29,53.15a29.37,29.37,0,0,0,13.59-3.36V29.08H137.6v7.17h7.24v8.48A11,11,0,0,1,139.61,46a9.53,9.53,0,0,1-8.08-4.46,18.93,18.93,0,0,1-3.15-11.19q0-6.73,2.93-10.7a9.52,9.52,0,0,1,8.1-4,40.7,40.7,0,0,1,5.93.6,33.24,33.24,0,0,1,6.18,1.46l1.12-7A39.52,39.52,0,0,0,139.73,8.5q-9.61,0-15,6t-5.4,16.22q0,10.2,5.67,16.3T140.29,53.15Z"/><polygon class="cls-3" points="184.68 45.61 167.7 45.61 167.7 32.75 183.11 32.75 183.11 25.46 167.7 25.46 167.7 16.29 184.57 16.29 184.57 9.12 158.66 9.12 158.66 52.78 184.68 52.78 184.68 45.61"/><polygon class="cls-3" points="200.16 52.78 209.14 52.78 209.14 16.29 220.02 16.29 220.02 9.12 189.47 9.12 189.47 16.29 200.16 16.29 200.16 52.78"/><rect class="cls-4" x="0.15" y="67.67" width="229.42" height="61.65"/><path class="cls-5" d="M25.54,87.53q-.67,2.82-3.87,14h7.81q-3-10.44-3.4-11.8T25.54,87.53Z"/><path class="cls-3" d="M21.32,78.88,9.7,118.44h7.9L20,109.06H31.12l2.39,9.38h8L29.85,78.88Zm.43,23.18q3.2-12.39,3.87-15.53.16.89.54,2.4t3.39,13.13Z"/><polygon class="cls-3" points="51.3 79.04 43.79 79.04 43.79 118.44 63.13 118.44 63.13 111.54 51.3 111.54 51.3 79.04"/><polygon class="cls-3" points="73.52 79.04 66.01 79.04 66.01 118.44 85.35 118.44 85.35 111.54 73.52 111.54 73.52 79.04"/><polygon class="cls-3" points="87.98 118.44 108.37 118.44 108.37 111.54 95.48 111.54 95.48 101.38 107.47 101.38 107.47 94.54 95.48 94.54 95.48 85.89 108.37 85.89 108.37 79.04 87.98 79.04 87.98 118.44"/><path class="cls-3" d="M125.63,95.7a44.86,44.86,0,0,1-4.76-2.76,5.64,5.64,0,0,1-1.47-1.59,4,4,0,0,1-.46-1.93,3.81,3.81,0,0,1,1.14-2.88,4.5,4.5,0,0,1,3.27-1.11,13.73,13.73,0,0,1,3.65.51,33.6,33.6,0,0,1,4.69,1.81l2.42-6.5a33.59,33.59,0,0,0-5.25-2,18.59,18.59,0,0,0-5.27-.73c-3.74,0-6.68,1-8.8,3a10.73,10.73,0,0,0-3.19,8.22,11.44,11.44,0,0,0,1,4.85,12.23,12.23,0,0,0,2.6,3.64,21.79,21.79,0,0,0,4.86,3.26,43.74,43.74,0,0,1,4.59,2.66,6.82,6.82,0,0,1,1.71,1.74,3.7,3.7,0,0,1,.58,2.06,3.75,3.75,0,0,1-1.32,3.13,6,6,0,0,1-3.79,1,16.13,16.13,0,0,1-4.54-.73,38.52,38.52,0,0,1-6.07-2.5v7.76a20.68,20.68,0,0,0,10,2.37q6.15,0,9.61-3.07a10.69,10.69,0,0,0,3.45-8.41,11.2,11.2,0,0,0-1.84-6.51Q130.6,98.34,125.63,95.7Z"/><rect class="cls-3" x="152.62" y="79.04" width="7.51" height="39.4"/><path class="cls-3" d="M206.07,86.19l3.61,5,.54-.68c.48-.43,1.35-1.33,2.59-2.72l-.12,4.1-.07,3.74v22.8h7.48V79H214Z"/><polygon class="cls-3" points="183.54 104.36 171.23 78.98 163.76 78.98 163.76 118.3 171.23 118.3 171.23 94.14 183.19 118.35 190.87 118.35 190.87 78.98 183.54 78.98 183.54 104.36"/><path class="cls-4" d="M15.88,142.11l0,0c-.37,4.34-.8,8.67-1.26,13s-.87,8.66-1.22,13a2.17,2.17,0,0,1-.59.07h-2.5a3.87,3.87,0,0,1-.58-1.3c-.17-.56-.33-1.16-.51-1.8s-.35-1.26-.53-1.87a5.39,5.39,0,0,0-.6-1.43h0A2.91,2.91,0,0,0,7.51,163c-.16.57-.32,1.17-.47,1.81s-.3,1.26-.45,1.86a5,5,0,0,1-.53,1.39l-.9.13a6.65,6.65,0,0,1-.94.06,11.84,11.84,0,0,1-1.44-.11h0Q1.84,161.73,1,155.21a111.84,111.84,0,0,1-1-13v0c.38-.05.77-.1,1.19-.13S2,142,2.44,142s1,0,1.51,0l1.43.07c.1,1.11.15,2.35.15,3.73V150q0,2.1.12,4.14a19.19,19.19,0,0,0,.52,3.65c.33-1.13.62-2.24.89-3.33s.53-2.2.81-3.33a.35.35,0,0,0,0-.12.13.13,0,0,1,0-.07A2.93,2.93,0,0,1,8.38,152c.18.64.37,1.36.56,2.16s.38,1.6.56,2.38a14.13,14.13,0,0,0,.51,1.73c.1-1.08.18-2.32.23-3.71s.09-2.82.13-4.27.08-2.88.11-4.27.11-2.65.21-3.75v0A7.23,7.23,0,0,1,12,142c.45,0,.9,0,1.35,0C14.21,142,15.06,142,15.88,142.11Z"/><path class="cls-4" d="M34.06,163.23v.07a23.11,23.11,0,0,1,0,2.51,9.82,9.82,0,0,1-.34,2.42q-3.84,0-7.81.1a68.06,68.06,0,0,1-7.62-.17c0-2.18,0-4.35-.08-6.49s-.08-4.29-.11-6.42,0-4.27,0-6.4.1-4.28.23-6.44l3.18-.13c1.14,0,2.29-.07,3.44-.09l3.36-.08c1.07,0,2,0,2.85,0s1.5,0,2,0a2.72,2.72,0,0,1,.75.08,12.47,12.47,0,0,1,.1,2.67c-.07.9-.1,1.79-.1,2.67v0a15.28,15.28,0,0,1-2.42.32c-.82,0-1.64.05-2.47,0s-1.66,0-2.49,0-1.65,0-2.48.11H24l0,0a17.12,17.12,0,0,1-.09,2.24,5.74,5.74,0,0,0,.13,2.16l0,0c.76.05,1.52.07,2.3.07s1.56,0,2.34,0v0a12.92,12.92,0,0,1,.11,2.56c-.05.85-.07,1.74,0,2.67a5.36,5.36,0,0,1-1.28.17l-1.37,0c-.44,0-.84,0-1.19,0a1.21,1.21,0,0,0-.71.19,11.1,11.1,0,0,0-.13,2.44c0,.91.07,1.66.13,2.26l0,0c1.66,0,3.29,0,4.9.13S32.36,163.28,34.06,163.23Z"/><path class="cls-4" d="M54.17,168.23h0c-.88,0-1.85,0-2.93.1a28.35,28.35,0,0,1-3.32,0h0c-.25-.58-.57-1.27-.94-2.07s-.79-1.65-1.25-2.52-.94-1.75-1.46-2.6a22.1,22.1,0,0,0-1.59-2.26l-.07-.11a15.68,15.68,0,0,0-.12,2.12c0,.84,0,1.71.06,2.6s.08,1.74.13,2.54l.12,1.92a5.45,5.45,0,0,1-1.68.34c-.69,0-1.37.08-2,.09s-1.29,0-1.83,0a4.93,4.93,0,0,0-1,0,3,3,0,0,0,.11-1c0-.69,0-1.6,0-2.73v-3.9c0-1.46,0-3,0-4.55s0-3.12-.08-4.67-.07-3-.09-4.25-.06-2.4-.09-3.31S36,142.36,36,142c1.4-.21,2.94-.39,4.62-.57a24.49,24.49,0,0,1,5.27,0,7.71,7.71,0,0,1,4,1.28,8.27,8.27,0,0,1,2.75,2.9,8.11,8.11,0,0,1,1,3.82,7.5,7.5,0,0,1-1.11,4,6.73,6.73,0,0,1-1.9,2.26,5.44,5.44,0,0,1-3,1h-.19v0c.53.93,1.11,1.86,1.74,2.77s1.24,1.84,1.84,2.77,1.18,1.88,1.73,2.84A20.29,20.29,0,0,1,54.17,168.23ZM41.48,147.3c0,.33,0,.7.06,1.12s0,.83,0,1.26,0,.84,0,1.24a8,8,0,0,0,.1,1h0q.87.07,1.89.12a9.9,9.9,0,0,0,1.92-.12,1.74,1.74,0,0,0,1.11-.73,2.8,2.8,0,0,0,.47-1.28,3.31,3.31,0,0,0-.15-1.39,2.2,2.2,0,0,0-.75-1.11,2.84,2.84,0,0,0-2.11-.7A8,8,0,0,0,41.48,147.3Z"/><path class="cls-4" d="M65.23,154.83l6.44,13.37a9.68,9.68,0,0,1-2.62.18c-.94,0-1.81-.08-2.61-.11A11.33,11.33,0,0,1,65,166.11c-.45-.85-.89-1.72-1.3-2.62l-1.22-2.67c-.4-.88-.81-1.67-1.21-2.37,0,.72,0,1.51,0,2.35s0,1.69.06,2.54,0,1.69,0,2.52,0,1.59,0,2.3a5.84,5.84,0,0,1-1.24.2q-.72.06-1.5.06a15.11,15.11,0,0,1-1.53-.07,11.36,11.36,0,0,1-1.22-.19q-.3-6.48-.09-13c.13-4.35.19-8.73.16-13.11.83,0,1.68,0,2.54,0s1.7.06,2.51.06c.05,1.43.06,2.94,0,4.52s0,3.08,0,4.51c0,0,0,0,.06,0a1.09,1.09,0,0,1,.13-.17,19.56,19.56,0,0,0,1.43-2.11q.64-1.09,1.23-2.22c.38-.75.79-1.51,1.2-2.26a24.51,24.51,0,0,1,1.41-2.26,21.85,21.85,0,0,0,2.56,0,11.89,11.89,0,0,1,2.56.12,17.63,17.63,0,0,1-1.26,3.16c-.54,1.05-1.12,2.1-1.73,3.16s-1.22,2.11-1.83,3.16A31,31,0,0,0,65.23,154.83Z"/><path class="cls-4" d="M87.78,142.19c0,.82.07,1.78.06,2.86a26.42,26.42,0,0,1-.21,3,7.28,7.28,0,0,0-1.77-.11L83,148h-.12s0,0,0,.06a.07.07,0,0,0,0,0,3.34,3.34,0,0,0-.06.59c0,.26,0,.67,0,1.24s0,1.3,0,2.22,0,2.09.06,3.54,0,3.17.07,5.19.06,4.4.11,7.14v.07a9.48,9.48,0,0,1-1.48.13c-.54,0-1.08,0-1.62,0h-1.6a9.56,9.56,0,0,0-1.47.11,12.83,12.83,0,0,1,0-1.35q0-1.2.06-3.6t0-6.11q-.06-3.73-.28-9l0,0a3.17,3.17,0,0,0-1.13-.28c-.45,0-.9-.06-1.36-.07s-.86,0-1.24,0a2.77,2.77,0,0,1-.79-.08,2.91,2.91,0,0,1-.13-.75c0-.4-.06-.88-.07-1.45s0-1.17,0-1.83,0-1.28.07-1.88c0,0,0,0,0,0s0,0,0,0c2.56,0,5.21,0,7.93-.06A71.42,71.42,0,0,1,87.78,142.19Z"/><path class="cls-4" d="M104.19,155.25a3.59,3.59,0,0,1,1.6-.36c.74,0,1.53,0,2.35,0s1.6.07,2.32.13,1.2.1,1.45.1H112l0,0c.15,1.33.25,2.75.3,4.24a19.81,19.81,0,0,1-.3,4.27,4.72,4.72,0,0,1-1.17,2.94,6.24,6.24,0,0,1-2.4,1.54c-.63.18-1.28.33-2,.47a17.79,17.79,0,0,1-2.07.3,9.34,9.34,0,0,1-2,0,6.88,6.88,0,0,1-1.91-.49,5.26,5.26,0,0,1-2.29-1.73,8.51,8.51,0,0,1-1.25-2.71c-.07-.27-.15-.66-.24-1.14s-.16-1-.21-1.49c-.07-.81-.13-1.53-.18-2.19s-.1-1.29-.14-1.93-.06-1.32-.07-2,0-1.54,0-2.46.06-1.63.11-2.47.14-1.66.26-2.47a11.09,11.09,0,0,1,.66-2.4,4.24,4.24,0,0,1,1.57-1.92,4.77,4.77,0,0,1,1.69-.94,12.43,12.43,0,0,1,2-.45,11.56,11.56,0,0,1,4,.13,8.08,8.08,0,0,1,3.24,1.41,6.18,6.18,0,0,1,2,2.69,8,8,0,0,1,.41,4l0,.23c0,.07-.16.11-.33.11s-.47,0-.87,0h-1c-.26,0-.53,0-.79,0s-.53,0-.81,0l-1-.12c-.07-.25-.18-.56-.32-.92a5.07,5.07,0,0,0-.52-1,4,4,0,0,0-.74-.83,1.43,1.43,0,0,0-1-.36c-.42,0-.84,0-1.24,0a1.44,1.44,0,0,0-1.05.45,1.21,1.21,0,0,0-.21.4,4.12,4.12,0,0,0-.21.62,15.27,15.27,0,0,0-.43,2.18q-.16,1.29-.24,2.73c-.06,1-.07,2,0,3s.07,2,.15,2.94a13.89,13.89,0,0,0,.3,1.81,2.65,2.65,0,0,0,.94,1.54,2.68,2.68,0,0,0,.87.34,3.64,3.64,0,0,0,1.18,0,6.22,6.22,0,0,0,1.15-.3,2,2,0,0,0,1.17-1.35q0-.15.09-.51c0-.24.06-.49.08-.74s0-.47,0-.67-.06-.32-.13-.34a3,3,0,0,0-.63,0l-.83,0h-.79a1.62,1.62,0,0,1-.54-.1q-.08-.6-.09-1.05a6.61,6.61,0,0,1,0-.89c0-.28,0-.58,0-.88a10.42,10.42,0,0,0-.07-1.13v0s0,0,0,0Z"/><path class="cls-4" d="M130.58,163.23v.07c0,.81.06,1.64,0,2.51a10.87,10.87,0,0,1-.34,2.42c-2.57,0-5.17,0-7.82.1a68.06,68.06,0,0,1-7.62-.17c0-2.18,0-4.35-.07-6.49s-.09-4.29-.11-6.42,0-4.27,0-6.4.09-4.28.22-6.44l3.18-.13q1.71-.06,3.45-.09l3.35-.08c1.07,0,2,0,2.85,0s1.5,0,2,0a2.72,2.72,0,0,1,.75.08,12.47,12.47,0,0,1,.1,2.67c-.06.9-.1,1.79-.1,2.67v0a15.28,15.28,0,0,1-2.42.32c-.82,0-1.64.05-2.47,0s-1.66,0-2.48,0-1.66,0-2.49.11h-.11l0,0a14.23,14.23,0,0,1-.09,2.24,5.74,5.74,0,0,0,.13,2.16l0,0c.76.05,1.52.07,2.3.07s1.56,0,2.34,0v0a12.92,12.92,0,0,1,.11,2.56c0,.85-.06,1.74,0,2.67a5.36,5.36,0,0,1-1.28.17l-1.37,0c-.44,0-.84,0-1.19,0a1.21,1.21,0,0,0-.71.19,11.1,11.1,0,0,0-.13,2.44c0,.91.08,1.66.13,2.26l0,0c1.66,0,3.29,0,4.9.13S128.87,163.28,130.58,163.23Z"/><path class="cls-4" d="M148,142.11l0,0c-.37,4.34-.8,8.67-1.26,13s-.87,8.66-1.22,13a2.17,2.17,0,0,1-.59.07h-2.5a3.87,3.87,0,0,1-.58-1.3q-.25-.84-.51-1.8c-.18-.64-.35-1.26-.53-1.87a5.39,5.39,0,0,0-.6-1.43h0a2.91,2.91,0,0,0-.58,1.19c-.16.57-.32,1.17-.47,1.81s-.3,1.26-.45,1.86a5,5,0,0,1-.53,1.39l-.9.13a6.7,6.7,0,0,1-.95.06,11.84,11.84,0,0,1-1.43-.11h0q-.92-6.43-1.77-12.95a111.84,111.84,0,0,1-1-13v0c.38-.05.77-.1,1.19-.13s.83-.06,1.25-.06,1,0,1.51,0l1.43.07c.1,1.11.15,2.35.15,3.73V150q0,2.1.12,4.14a19.19,19.19,0,0,0,.52,3.65c.33-1.13.62-2.24.89-3.33s.53-2.2.81-3.33a.35.35,0,0,0,0-.12.13.13,0,0,1,0-.07,2.93,2.93,0,0,1,.44,1.07c.18.64.37,1.36.56,2.16s.38,1.6.56,2.38a14.13,14.13,0,0,0,.51,1.73c.1-1.08.18-2.32.23-3.71s.09-2.82.13-4.27.08-2.88.11-4.27.11-2.65.21-3.75v0a7.12,7.12,0,0,1,1.32-.18c.45,0,.9,0,1.35,0C146.33,142,147.18,142,148,142.11Z"/><path class="cls-4" d="M165.21,146.06a6.24,6.24,0,0,1,.39,1.15,11.65,11.65,0,0,1,.21,1.18c.05.63.08,1.25.09,1.87s0,1.23,0,1.86c-.07,1.33-.1,2.62-.07,3.88a38.38,38.38,0,0,1-.11,3.84l-.12,1.24a14.67,14.67,0,0,1-.41,2.66,8.6,8.6,0,0,1-1,2.42,4.61,4.61,0,0,1-1.67,1.45,9.93,9.93,0,0,1-2.2.85,11.35,11.35,0,0,1-2.13.38,15.71,15.71,0,0,1-2.17,0c-.52-.06-1-.12-1.52-.21a5.91,5.91,0,0,1-1.39-.43,4.8,4.8,0,0,1-1.19-.78,3.63,3.63,0,0,1-.87-1.22,6,6,0,0,1-.69-2,19.67,19.67,0,0,1-.21-2.17c-.07-2-.16-3.92-.24-5.89a55.88,55.88,0,0,1,0-5.93,16.59,16.59,0,0,1,.44-3.4,6.72,6.72,0,0,1,1.56-3,4.23,4.23,0,0,1,.87-.68,11,11,0,0,1,2.68-.89,12.4,12.4,0,0,1,2.91-.2,11.76,11.76,0,0,1,2.82.5,8,8,0,0,1,2.46,1.27A5.35,5.35,0,0,1,165.21,146.06Zm-4,9.19-.08-2.56s0-.29,0-.78-.07-.94-.1-1.37a4.35,4.35,0,0,0-.58-1.92,3.21,3.21,0,0,0-1.38-1.28,2.46,2.46,0,0,0-1.54-.11,3.78,3.78,0,0,0-1.39.64,4.89,4.89,0,0,0-1.77,2.6,17.84,17.84,0,0,0-.36,3c0,1.05,0,2.1,0,3.16.13.88.21,1.77.27,2.69a10.19,10.19,0,0,0,.45,2.62,2.66,2.66,0,0,0,1.09,1.16,3.48,3.48,0,0,0,1.54.48,4.34,4.34,0,0,0,1.66-.23,3.3,3.3,0,0,0,1.39-.92,6.11,6.11,0,0,0,.49-.74,1.8,1.8,0,0,0,.19-.62,6.69,6.69,0,0,0,0-.81,8.52,8.52,0,0,1,0-1.26q0-.75.06-1.32c0-.37,0-.59,0-.64Z"/><path class="cls-4" d="M183.39,146.06a6.24,6.24,0,0,1,.39,1.15,11.65,11.65,0,0,1,.21,1.18c0,.63.08,1.25.09,1.87s0,1.23,0,1.86c-.08,1.33-.11,2.62-.08,3.88a38.38,38.38,0,0,1-.11,3.84l-.11,1.24a14.7,14.7,0,0,1-.42,2.66,8.6,8.6,0,0,1-1,2.42,4.53,4.53,0,0,1-1.67,1.45,9.93,9.93,0,0,1-2.2.85,11.35,11.35,0,0,1-2.13.38,15.71,15.71,0,0,1-2.17,0c-.52-.06-1-.12-1.52-.21a5.91,5.91,0,0,1-1.39-.43,4.8,4.8,0,0,1-1.19-.78,3.48,3.48,0,0,1-.86-1.22,5.8,5.8,0,0,1-.7-2,19.67,19.67,0,0,1-.21-2.17c-.07-2-.15-3.92-.24-5.89a53.35,53.35,0,0,1,.06-5.93,15.91,15.91,0,0,1,.43-3.4,6.72,6.72,0,0,1,1.56-3,4.23,4.23,0,0,1,.87-.68,10.9,10.9,0,0,1,2.69-.89,12.28,12.28,0,0,1,2.9-.2,11.76,11.76,0,0,1,2.82.5,7.87,7.87,0,0,1,2.46,1.27A5.35,5.35,0,0,1,183.39,146.06Zm-4,9.19-.08-2.56s0-.29-.05-.78-.07-.94-.1-1.37a4.35,4.35,0,0,0-.58-1.92,3.24,3.24,0,0,0-1.37-1.28,2.5,2.5,0,0,0-1.55-.11,3.78,3.78,0,0,0-1.39.64,4.89,4.89,0,0,0-1.77,2.6,16.88,16.88,0,0,0-.35,3c0,1.05,0,2.1,0,3.16.13.88.21,1.77.27,2.69a11.13,11.13,0,0,0,.45,2.62,2.66,2.66,0,0,0,1.09,1.16,3.52,3.52,0,0,0,1.54.48,4.34,4.34,0,0,0,1.66-.23,3.24,3.24,0,0,0,1.39-.92,6.11,6.11,0,0,0,.49-.74,1.61,1.61,0,0,0,.19-.62,6.69,6.69,0,0,0,0-.81,10.18,10.18,0,0,1,.05-1.26q0-.75.06-1.32c0-.37,0-.59,0-.64Z"/><path class="cls-4" d="M201.08,168.53c-.5,0-1.08,0-1.73-.09s-1.23-.09-1.73-.09q-1.25-2.79-2.47-5.4c-.82-1.75-1.51-3.42-2.09-5l-.37-1.13c-.11-.27-.2-.53-.29-.77s-.16-.36-.2-.36a3.68,3.68,0,0,0-.1.9c0,.61-.07,1.37-.09,2.3s0,2-.06,3.09,0,2.22,0,3.27v1.68c0,.54,0,1,0,1.45a6,6,0,0,1-.83.15c-.27,0-.55,0-.83,0a14,14,0,0,1-1.82-.11,15.91,15.91,0,0,0-1.79-.11v-2.63q0-3.59-.06-6.82c0-2.16,0-4.42,0-6.77,0-1.74,0-3.45.07-5.14s.14-3.35.27-4.95q.38-.08.81-.12c.28,0,.58,0,.88,0h.75c.35,0,.71,0,1.06.08s.66.08.92.13.4.1.4.15a11.29,11.29,0,0,0,.48,1.13c.16.3.3.59.44.87s.29.58.45.92.36.77.58,1.3c.05.12.16.36.34.71s.38.76.6,1.23l.72,1.46c.25.52.48,1,.7,1.4l.54,1a1.7,1.7,0,0,0,.26.43c.08-.05.14-.3.19-.75a12,12,0,0,0,.08-1.31c0-1,0-1.94-.06-2.81s-.06-1.75-.06-2.65c0-.53,0-1.06,0-1.6s0-1.13.06-1.75a15.63,15.63,0,0,1,2.71-.23,12.24,12.24,0,0,1,2.48.23V154c0,1.05,0,2.12,0,3.2v3.23c0,.73,0,1.43,0,2.11s0,1.37,0,2.07c0,.5,0,1,0,1.51s0,1,0,1.5v.76l-.34.11A3.77,3.77,0,0,1,201.08,168.53Z"/><path class="cls-4" d="M217.34,155.7l-4.25,0H213a8.58,8.58,0,0,1-.09-1c0-.43,0-.86,0-1.28s0-.83,0-1.21,0-.65,0-.82a3.75,3.75,0,0,1,1.07-.23,13.18,13.18,0,0,1,1.41-.08c.48,0,.92,0,1.34.06a3.06,3.06,0,0,1,.88.17s0,.23,0,.62-.06.83-.08,1.34-.05,1-.08,1.46,0,.81,0,1v.08Zm-.11,13.44-.3,1.5-.15.74c-.05.23-.11.48-.15.73a2.77,2.77,0,0,0-.85-.06c-.44,0-1,0-1.75,0-.05,0,0-.19,0-.45s.14-.56.24-.92.2-.75.28-1.15.16-.77.21-1.13l-1.77-.15a.18.18,0,0,1-.11,0v-.15c0-.08,0-.26,0-.53s0-.7,0-1.26,0-1.36.09-2.39v0h0a5,5,0,0,1,2.09-.17c.73.09,1.55.16,2.43.21h0l-.15,4.33h-.07a.08.08,0,0,1,0,.05.14.14,0,0,0,0,.06,1.69,1.69,0,0,1-.06.39C217.28,168.87,217.25,169,217.23,169.14Z"/><path class="cls-4" d="M226.86,166.8a7.24,7.24,0,0,1-2.07,1.13,9.61,9.61,0,0,1-2.44.42h-.64l-.89,0a.85.85,0,0,1-.69-.32c0-.63-.07-1.35-.06-2.15s0-1.53-.06-2.18v-.19h0a4.07,4.07,0,0,0,2.24-.81,4.6,4.6,0,0,0,1.64-2,10.73,10.73,0,0,0,.39-3.32c0-1.15,0-2.27,0-3.35-.06-.58-.11-1.16-.18-1.75a17.5,17.5,0,0,0-.28-1.82,3.3,3.3,0,0,0-.09-.49c0-.15-.08-.32-.13-.49a2.87,2.87,0,0,0-.47-1.11,4,4,0,0,0-.85-.89,4.9,4.9,0,0,0-1.06-.62,8.42,8.42,0,0,0-1.09-.39q0-1.09-.09-2.28a13.13,13.13,0,0,1,.09-2.35l0,0c.43-.05.89-.1,1.38-.13l1.37-.1a7.43,7.43,0,0,1,3.2.81A5.85,5.85,0,0,1,228.6,145a5.2,5.2,0,0,1,.62,1.58,11.7,11.7,0,0,1,.22,1.68c0,.56.05,1.13,0,1.71s0,1.14,0,1.69v.91c0,1.28,0,2.62.06,4s.12,2.79.16,4.13a12.67,12.67,0,0,1-.31,2,9.28,9.28,0,0,1-1,2.33,1.25,1.25,0,0,1-.15.27A7.06,7.06,0,0,1,226.86,166.8Z"/></g></g></svg>