
<svg version="1.1" id="Layer_1" xmlns="http://www.w3.org/2000/svg" xmlns:xlink="http://www.w3.org/1999/xlink" x="0px" y="0px"
	 viewBox="0 0 229 129" style="enable-background:new 0 0 229 129;" xml:space="preserve" preserveAspectRatio="xMidYMid meet" width="229" height="129">
<style type="text/css">
	.st0{fill:#40A52B;}
	.st1{fill:#3D3D3F;}
	.st2{fill:#FFFFFF;}
</style>
<g>
	<g>
		<rect y="67.7" class="st0" width="229.4" height="61.7"/>
		<rect class="st1" width="229.4" height="61.7"/>
		<path class="st2" d="M9.5,52.8V9.1h13.7c4.9,0,8.5,1,10.9,2.9c2.4,1.9,3.6,4.7,3.6,8.3c0,2.4-0.7,4.4-2,6
			c-1.4,1.6-3.2,2.5-5.5,2.9c2.9,0.5,5.2,1.7,6.9,3.6c1.6,1.9,2.4,4.2,2.4,7c0,3.9-1.5,7.1-4.4,9.5c-3,2.4-7,3.6-12.3,3.6H9.5z
			 M23.6,16.3h-5.4v9.5H23c1.6,0,3.1-0.5,4.3-1.5c1.3-1,1.9-2.3,1.9-3.9C29.2,17.9,27.3,16.5,23.6,16.3 M18.2,45.6h6.2
			c2,0,3.6-0.5,4.8-1.6c1.2-1.1,1.8-2.5,1.8-4.3c0-1.8-0.7-3.4-2-4.7c-1.4-1.4-3.3-2-5.9-2h-4.9V45.6z"/>
		<path class="st2" d="M71.7,49c-2.8,2.8-6.8,4.1-12.1,4.1c-5.3,0-9.3-1.4-12.1-4.1c-2.8-2.8-4.2-6.9-4.2-12.3V9.1h9.1v28.3
			c0,2.7,0.6,4.9,1.8,6.3c1.2,1.5,3,2.2,5.3,2.2c2.3,0,4.1-0.7,5.3-2.2c1.3-1.5,1.9-3.6,1.9-6.3V9.1h9.1v27.6
			C75.9,42.1,74.5,46.2,71.7,49"/>
		<path class="st2" d="M116,29.4c0,7-2,12.7-6.1,17c-4.1,4.3-9.5,6.4-16.3,6.4H81.9V9.1h13.5c6.2,0,11.2,1.9,14.9,5.7
			C114.1,18.6,116,23.4,116,29.4 M106.6,28.9c0-3.9-1.1-7-3.2-9.2c-2.1-2.2-4.7-3.4-7.7-3.4h-5v29.3h3.4c3.5,0,6.4-1.5,8.9-4.5
			C105.4,38.2,106.6,34.1,106.6,28.9"/>
		<path class="st2" d="M140.1,53.2c-6.4,0-11.5-2-15.3-6.1c-3.8-4.1-5.7-9.5-5.7-16.3c0-6.8,1.8-12.2,5.4-16.2c3.6-4,8.6-6,15-6
			c4.2,0,8.6,0.7,12.9,2.2l-1.1,7c-1.6-0.6-3.6-1.1-6.2-1.5c-2.5-0.4-4.5-0.6-5.9-0.6c-3.5,0-6.1,1.3-8.1,4c-2,2.6-2.9,6.2-2.9,10.7
			c0,4.5,1,8.2,3.1,11.2c2.1,3,4.8,4.5,8.1,4.5c1.9,0,3.7-0.4,5.2-1.3v-8.5h-7.2v-7.2h16.3v20.7C149.4,52,144.8,53.2,140.1,53.2"/>
		<polygon class="st2" points="158.5,9.1 158.5,52.8 184.5,52.8 184.5,45.6 167.5,45.6 167.5,32.8 183,32.8 183,25.5 167.5,25.5 
			167.5,16.3 184.4,16.3 184.4,9.1 		"/>
		<polygon class="st2" points="189.3,9.1 189.3,16.3 200,16.3 200,52.8 209,52.8 209,16.3 219.9,16.3 219.9,9.1 		"/>
		<polygon class="st2" points="34.5,119.2 9.5,119.2 9.5,77.3 34.5,77.3 34.5,84.2 18.2,84.2 18.2,93 33,93 33,100 18.2,100 
			18.2,112.3 34.5,112.3 		"/>
		<polygon class="st2" points="72.4,119.3 63.2,119.3 49,93.5 49,119.2 40.2,119.2 40.2,77.3 49,77.3 63.7,104.4 63.7,77.3 
			72.4,77.3 		"/>
		<polygon class="st2" points="103.7,119.2 78.7,119.2 78.7,77.3 103.7,77.3 103.7,84.2 87.4,84.2 87.4,93 102.2,93 102.2,100 
			87.4,100 87.4,112.3 103.7,112.3 		"/>
		<path class="st2" d="M119.1,101h-0.7v18.2h-8.7v-42H123c4.5,0,7.9,1,10.1,3c2.2,2,3.4,4.8,3.4,8.5c0,2.2-0.8,4.3-2.3,6.1
			c-1.6,1.9-3.5,2.9-5.7,3.2c1.6,0.4,2.8,1.2,3.7,2.2c0.9,1,1.8,2.7,2.8,4.9l5.9,14H132l-5.8-13.4c-0.8-1.9-1.7-3.2-2.7-3.8
			C122.5,101.3,121.1,101,119.1,101 M122.8,84h-4.4v10.1h3.8c1.6,0,2.9-0.5,3.8-1.6c0.9-1,1.3-2.3,1.3-3.8
			C127.3,85.6,125.8,84,122.8,84"/>
		<path class="st2" d="M161.2,119.6c-6.2,0-11.1-2-14.7-5.9c-3.6-3.9-5.5-9.1-5.5-15.7c0-6.5,1.7-11.7,5.2-15.6
			c3.4-3.9,8.3-5.8,14.4-5.8c4.1,0,8.2,0.7,12.4,2.2l-1.1,6.7c-1.5-0.6-3.5-1-5.9-1.4c-2.4-0.4-4.3-0.6-5.7-0.6
			c-3.3,0-5.9,1.3-7.8,3.8c-1.9,2.5-2.8,6-2.8,10.3c0,4.3,1,7.9,3,10.8c2,2.9,4.6,4.3,7.8,4.3c1.8,0,3.5-0.4,5-1.2v-8.1h-7v-6.9
			h15.6v19.9C170.1,118.5,165.7,119.6,161.2,119.6"/>
		<rect x="180.1" y="77.3" class="st2" width="8.7" height="42"/>
		<polygon class="st2" points="219.9,119.2 194.9,119.2 194.9,77.3 219.9,77.3 219.9,84.2 203.6,84.2 203.6,93 218.4,93 218.4,100 
			203.6,100 203.6,112.3 219.9,112.3 		"/>
	</g>
</g>
</svg>
